<svg id="Layer_1" data-name="Layer 1" xmlns="http://www.w3.org/2000/svg" viewBox="0 0 89.11 34.93"><defs><style>.cls-1{fill:none;}.cls-2{fill:#3f3f3d;}</style></defs><title>Artboard 1</title><rect class="cls-1" x="-12.14" y="-10.26" width="113.39" height="51.02"/><path class="cls-2" d="M37.3,7.81V5.25h-.73V16.39h.73V10a4.61,4.61,0,0,1,3.91-4.22V5.15A5.16,5.16,0,0,0,37.3,7.81"/><path class="cls-2" d="M66.88,10.85v-.17A5.39,5.39,0,0,1,72.22,5a5.28,5.28,0,0,1,5.28,5.62v.17a5.32,5.32,0,1,1-10.62,0m9.88,0v-.17c0-3.15-2.09-5-4.54-5s-4.6,1.92-4.6,5v.17c0,3,2.07,5,4.58,5s4.56-1.91,4.56-5"/><path class="cls-2" d="M88.35,12.49A4.42,4.42,0,0,1,84,15.85c-2.51,0-4.58-2-4.58-5v-.17c0-3.11,2.11-5,4.6-5a4.38,4.38,0,0,1,4.19,3H89A5.12,5.12,0,0,0,84,5a5.39,5.39,0,0,0-5.34,5.64v.17A5.38,5.38,0,0,0,84,16.49a5.25,5.25,0,0,0,5.11-4Z"/><path class="cls-2" d="M12.09,10.85v-.17A5.39,5.39,0,0,1,17.43,5a5.28,5.28,0,0,1,5.28,5.62v.17a5.32,5.32,0,1,1-10.62,0m9.88,0v-.17c0-3.15-2.09-5-4.54-5s-4.59,1.92-4.59,5v.17c0,3,2.06,5,4.57,5s4.56-1.91,4.56-5"/><path class="cls-2" d="M24,10.85v-.17A5.39,5.39,0,0,1,29.32,5a5.28,5.28,0,0,1,5.28,5.62v.17a5.32,5.32,0,1,1-10.62,0m9.88,0v-.17c0-3.15-2.09-5-4.54-5s-4.59,1.92-4.59,5v.17c0,3,2.06,5,4.57,5s4.56-1.91,4.56-5"/><path class="cls-2" d="M10.62,10.61V.33H9.88V7.65A5.13,5.13,0,0,0,5.34,5,5.39,5.39,0,0,0,0,10.68v.17a5.38,5.38,0,0,0,5.3,5.64,5.37,5.37,0,0,0,5.32-5.66v-.22m-.74.22c0,3.11-2.06,5-4.56,5s-4.58-2-4.58-5v-.17c0-3.11,2.11-5,4.6-5s4.54,1.86,4.54,5Z"/><path class="cls-2" d="M65.46,10.61V.33h-.74V7.65A5.13,5.13,0,0,0,60.18,5a5.39,5.39,0,0,0-5.34,5.64v.17a5.32,5.32,0,1,0,10.62,0v-.22m-.74.22c0,3.11-2.07,5-4.56,5s-4.57-2-4.57-5v-.17c0-3.11,2.1-5,4.59-5s4.54,1.86,4.54,5Z"/><path class="cls-2" d="M48.23,17.26A1.69,1.69,0,0,1,50.13,19a1.74,1.74,0,0,1-.44,1.26h2.24a2.68,2.68,0,0,0,.38-1.44c0-1.81-1.49-3.29-4.05-3.29S44,17.16,43.92,19.29h2a2.15,2.15,0,0,1,2.29-2"/><path class="cls-2" d="M49.93,8.87c1.43-1.38,2.36-2.74,2.36-4.31A3.31,3.31,0,0,0,50.9,1.73H45.75a4.22,4.22,0,0,0-1.7,3.42H46.1c.2-1.7,1-2.39,2.15-2.39a1.67,1.67,0,0,1,1.8,1.84c0,1.14-.69,2.2-1.83,3.41L43.68,12.8v.41h8.69V11.47H47.26Z"/><rect class="cls-2" x="41.21" width="13.63" height="0.32"/><rect class="cls-2" x="41.21" y="21.67" width="13.63" height="0.32"/><path class="cls-2" d="M16.54,29.73a1.44,1.44,0,0,1-.06.43,3.62,3.62,0,0,1-.13.35l-.18.3c-.06.1-.12.19-.17.29a1.55,1.55,0,0,0-.14.29.87.87,0,0,0-.06.32.69.69,0,0,0,.1.36l.22.34a3.25,3.25,0,0,1,.21.37,1.14,1.14,0,0,1,.1.48,1.44,1.44,0,0,1-.16.64,1.5,1.5,0,0,1-.45.53,2,2,0,0,1-.7.37,3.5,3.5,0,0,1-1.69.05,2.2,2.2,0,0,1-.58-.24,1.21,1.21,0,0,1-.37-.38.92.92,0,0,1-.13-.49,1.06,1.06,0,0,1,.2-.64,1.48,1.48,0,0,1,.51-.45,2.55,2.55,0,0,1,.72-.26,4.58,4.58,0,0,1,.83-.08l.34,0,.34,0a1.34,1.34,0,0,1-.07-.18.78.78,0,0,1,0-.22,1.17,1.17,0,0,1,.05-.3,1.93,1.93,0,0,1,.15-.35,1.4,1.4,0,0,1-.41.19,2,2,0,0,1-.51.07,1.44,1.44,0,0,1-.51-.09,1.17,1.17,0,0,1-.42-.27,1.25,1.25,0,0,1-.29-.44,1.66,1.66,0,0,1-.1-.61,1.94,1.94,0,0,1,.49-1.27,1.83,1.83,0,0,1,.6-.41,1.94,1.94,0,0,1,.82-.16,1.61,1.61,0,0,1,.91.25h1.31l0,.28a.88.88,0,0,1,0,.15.25.25,0,0,1-.14.08l-.6.1a2,2,0,0,1,.07.26A2.64,2.64,0,0,1,16.54,29.73Zm-.88,3.59a.85.85,0,0,0,0-.23.76.76,0,0,0-.06-.2l-.48-.06-.43,0a2.7,2.7,0,0,0-.67.07,1.93,1.93,0,0,0-.47.18.91.91,0,0,0-.28.27.59.59,0,0,0-.09.31.58.58,0,0,0,.29.52,1.53,1.53,0,0,0,.82.18,2,2,0,0,0,.57-.08,1.65,1.65,0,0,0,.44-.22,1.13,1.13,0,0,0,.29-.33A.87.87,0,0,0,15.66,33.32ZM14.71,31a.84.84,0,0,0,.45-.11,1,1,0,0,0,.33-.29,1.2,1.2,0,0,0,.2-.41,1.48,1.48,0,0,0,.08-.46.86.86,0,0,0-.21-.63.78.78,0,0,0-.59-.22.94.94,0,0,0-.45.11.88.88,0,0,0-.33.28,1.5,1.5,0,0,0-.2.4,1.7,1.7,0,0,0-.07.46.91.91,0,0,0,.21.65A.75.75,0,0,0,14.71,31Z"/><path class="cls-2" d="M17.41,33.21,18,28.39h.43a.33.33,0,0,1,.21.06.22.22,0,0,1,.07.19v.06a.2.2,0,0,1,0,.07v.1l-.07.87a3.48,3.48,0,0,1,.69-1,1.19,1.19,0,0,1,.81-.36,1,1,0,0,1,.4.08l-.16.81a1.11,1.11,0,0,0-.43-.09,1,1,0,0,0-.82.45,3.69,3.69,0,0,0-.6,1.36l-.27,2.24Z"/><path class="cls-2" d="M22.27,28.39l-.58,4.82h-.83l.58-4.82Zm.32-1.51a.46.46,0,0,1-.05.23.5.5,0,0,1-.13.19.59.59,0,0,1-.19.13.42.42,0,0,1-.22.05.41.41,0,0,1-.21-.05.46.46,0,0,1-.18-.13.64.64,0,0,1-.13-.19.55.55,0,0,1,0-.46.64.64,0,0,1,.13-.19.79.79,0,0,1,.18-.14.51.51,0,0,1,.44,0,.59.59,0,0,1,.18.13.72.72,0,0,1,.14.2A.59.59,0,0,1,22.59,26.88Z"/><path class="cls-2" d="M22.86,34.83l.78-6.44h.42c.19,0,.29.09.29.28l-.08,1a4.07,4.07,0,0,1,.39-.57,3.57,3.57,0,0,1,.45-.43,1.87,1.87,0,0,1,.49-.28,1.39,1.39,0,0,1,.53-.1,1.14,1.14,0,0,1,.95.45,2.11,2.11,0,0,1,.34,1.31,3.42,3.42,0,0,1-.08.77,3.83,3.83,0,0,1-.23.75,4.22,4.22,0,0,1-.36.66,3,3,0,0,1-.47.53,2,2,0,0,1-.56.35,1.61,1.61,0,0,1-1.29,0,1.28,1.28,0,0,1-.49-.4l-.26,2.1ZM25.81,29a1,1,0,0,0-.47.14,2.31,2.31,0,0,0-.45.4,4.31,4.31,0,0,0-.41.61,5,5,0,0,0-.32.77L24,32.14a.94.94,0,0,0,.43.37,1.35,1.35,0,0,0,.52.11,1,1,0,0,0,.46-.11,1.38,1.38,0,0,0,.4-.28,1.94,1.94,0,0,0,.32-.42,3,3,0,0,0,.25-.51,3.39,3.39,0,0,0,.14-.57,2.76,2.76,0,0,0,.06-.57,1.45,1.45,0,0,0-.21-.86A.64.64,0,0,0,25.81,29Z"/><path class="cls-2" d="M31.53,33.27a1.88,1.88,0,0,1-.72-.13,1.64,1.64,0,0,1-.57-.4,2,2,0,0,1-.37-.62,2.76,2.76,0,0,1-.13-.85,3.33,3.33,0,0,1,.19-1.14,3.17,3.17,0,0,1,.52-.94,2.52,2.52,0,0,1,.78-.64,2,2,0,0,1,1-.23,1.85,1.85,0,0,1,.72.13,1.61,1.61,0,0,1,.57.39,2,2,0,0,1,.37.63,2.49,2.49,0,0,1,.13.85,3.33,3.33,0,0,1-.19,1.14,3,3,0,0,1-.52.94,2.52,2.52,0,0,1-.78.64A2.13,2.13,0,0,1,31.53,33.27Zm.08-.66a1.09,1.09,0,0,0,.63-.19,1.57,1.57,0,0,0,.48-.51,2.24,2.24,0,0,0,.31-.72,3.15,3.15,0,0,0,.11-.87,1.57,1.57,0,0,0-.26-1,.88.88,0,0,0-.75-.34,1.1,1.1,0,0,0-.64.19,1.54,1.54,0,0,0-.48.5,2.68,2.68,0,0,0-.31.73,3.58,3.58,0,0,0-.11.87,1.66,1.66,0,0,0,.26,1A.89.89,0,0,0,31.61,32.61Z"/><path class="cls-2" d="M34.39,34.83l.78-6.44h.42c.19,0,.29.09.29.28l-.08,1a4.07,4.07,0,0,1,.39-.57,2.59,2.59,0,0,1,.45-.43,1.87,1.87,0,0,1,.49-.28,1.37,1.37,0,0,1,.52-.1,1.14,1.14,0,0,1,1,.45A2.11,2.11,0,0,1,39,30.08a4.11,4.11,0,0,1-.08.77,3.83,3.83,0,0,1-.23.75,4.22,4.22,0,0,1-.36.66,3,3,0,0,1-.47.53,2,2,0,0,1-.56.35,1.59,1.59,0,0,1-.64.13,1.51,1.51,0,0,1-.65-.14,1.39,1.39,0,0,1-.5-.4l-.25,2.1Zm3-5.83a.94.94,0,0,0-.47.14,2.06,2.06,0,0,0-.45.4,3.6,3.6,0,0,0-.41.61,5,5,0,0,0-.32.77l-.15,1.22a.94.94,0,0,0,.43.37,1.35,1.35,0,0,0,.52.11,1,1,0,0,0,.46-.11,1.38,1.38,0,0,0,.4-.28,1.94,1.94,0,0,0,.32-.42,2.38,2.38,0,0,0,.24-.51,2.65,2.65,0,0,0,.15-.57,2.75,2.75,0,0,0,0-.57,1.46,1.46,0,0,0-.2-.86A.66.66,0,0,0,37.34,29Z"/><path class="cls-2" d="M41.39,28.39H42a.25.25,0,0,1,.16.05.21.21,0,0,1,.07.13l.44,3.1,0,.32v.3l.12-.3.12-.32,1.32-3.12a.27.27,0,0,1,.09-.12.27.27,0,0,1,.15-.05h.35a.25.25,0,0,1,.15.05.23.23,0,0,1,.06.12l.53,3.12c0,.11,0,.21,0,.32l0,.31.09-.31c0-.1.07-.21.11-.32l1.22-3.1a.31.31,0,0,1,.1-.13.25.25,0,0,1,.15-.05H48l-2,4.82h-.64c-.08,0-.12-.06-.14-.17l-.59-3.26c0-.05,0-.1,0-.15s0-.11,0-.16a.75.75,0,0,1,0,.16,1.42,1.42,0,0,1-.05.16L43.05,33c0,.11-.11.17-.2.17h-.61Z"/><path class="cls-2" d="M51.62,33.21h-.43a.26.26,0,0,1-.23-.09.37.37,0,0,1-.06-.21L51,32a4.63,4.63,0,0,1-.37.54,2.09,2.09,0,0,1-.42.42,2,2,0,0,1-.46.27,1.44,1.44,0,0,1-.51.09,1.19,1.19,0,0,1-.51-.11,1,1,0,0,1-.4-.33,1.53,1.53,0,0,1-.25-.53,2.63,2.63,0,0,1-.09-.72,3.33,3.33,0,0,1,.1-.84,3.65,3.65,0,0,1,.31-.77,3.43,3.43,0,0,1,.47-.66,3.36,3.36,0,0,1,.61-.52,2.85,2.85,0,0,1,.73-.34,2.76,2.76,0,0,1,.82-.12,2.92,2.92,0,0,1,.6.05,2.41,2.41,0,0,1,.58.17Zm-2.07-.64a.88.88,0,0,0,.46-.14,1.75,1.75,0,0,0,.42-.4,3.42,3.42,0,0,0,.37-.6,5.24,5.24,0,0,0,.31-.76l.2-1.63a.28.28,0,0,0-.2-.09h-.2a1.54,1.54,0,0,0-.56.1,1.89,1.89,0,0,0-.49.25,2.32,2.32,0,0,0-.43.4,2.84,2.84,0,0,0-.32.5,3,3,0,0,0-.21.59,2.74,2.74,0,0,0-.08.64C48.82,32.19,49.06,32.57,49.55,32.57Z"/><path class="cls-2" d="M56,32.79a2.28,2.28,0,0,1-.45.29,1.9,1.9,0,0,1-.46.15,2.78,2.78,0,0,1-.51,0,1.88,1.88,0,0,1-.74-.14,1.47,1.47,0,0,1-.54-.4,2,2,0,0,1-.33-.62,2.94,2.94,0,0,1-.11-.81A3.55,3.55,0,0,1,53,30.18a3.76,3.76,0,0,1,.51-.95,2.74,2.74,0,0,1,.78-.66,2.11,2.11,0,0,1,1-.24,1.59,1.59,0,0,1,.79.17,1.56,1.56,0,0,1,.57.49l-.27.32-.07.06-.09,0a.18.18,0,0,1-.13-.06l-.17-.13a1,1,0,0,0-.26-.13,1.07,1.07,0,0,0-.39-.06,1.23,1.23,0,0,0-.62.17,1.59,1.59,0,0,0-.51.49,2.6,2.6,0,0,0-.35.73,3.34,3.34,0,0,0-.12.91,2.15,2.15,0,0,0,.06.53,1.21,1.21,0,0,0,.2.41.83.83,0,0,0,.33.26.93.93,0,0,0,.45.1,1.52,1.52,0,0,0,.38,0,1.6,1.6,0,0,0,.29-.11.91.91,0,0,0,.23-.15l.17-.14.14-.11a.27.27,0,0,1,.13,0,.23.23,0,0,1,.17.08l.21.26A6.22,6.22,0,0,1,56,32.79Z"/><path class="cls-2" d="M57,33.21l.85-7h.85l-.4,3.25a2.81,2.81,0,0,1,.83-.85,1.78,1.78,0,0,1,.94-.29,1,1,0,0,1,.84.36,1.6,1.6,0,0,1,.3,1.05,1.34,1.34,0,0,1,0,.2,1.49,1.49,0,0,1,0,.21l-.36,3.07H60l.36-3.07a1.1,1.1,0,0,1,0-.18v-.17a1,1,0,0,0-.14-.58.54.54,0,0,0-.46-.19.94.94,0,0,0-.44.12,1.45,1.45,0,0,0-.44.33,2.66,2.66,0,0,0-.4.51,4.15,4.15,0,0,0-.32.67l-.31,2.56Z"/><path class="cls-2" d="M66.56,32s0-.11,0-.19,0-.18,0-.31l.29-2.37h1.27l.07-.61H67l.21-1.66h-.45a.19.19,0,0,0-.13.05.21.21,0,0,0-.07.11l-.36,1.49H63.72l.21-1.66h-.45a.17.17,0,0,0-.12.05.23.23,0,0,0-.08.11l-.35,1.49-.74.1s0,.07,0,.11l0,.11s0,.07,0,.1a.2.2,0,0,1,0,.05.17.17,0,0,0,0,.12.15.15,0,0,0,.1,0h.53l-.3,2.41c0,.15,0,.27,0,.36s0,.17,0,.22,0,.1,0,.13v.08a1,1,0,0,0,.27.73,1,1,0,0,0,.73.25,1.61,1.61,0,0,0,.6-.12,1.46,1.46,0,0,0,.52-.32l-.17-.4s0,0-.05-.06l-.06,0a.12.12,0,0,0-.08,0l-.12.07a.8.8,0,0,1-.16.08.54.54,0,0,1-.22,0,.41.41,0,0,1-.31-.12.53.53,0,0,1-.11-.36v0s0,0,0-.1,0-.11,0-.19,0-.18,0-.31l.29-2.37h2.43l-.3,2.41c0,.15,0,.27,0,.36s0,.17,0,.22a.72.72,0,0,0,0,.13.25.25,0,0,0,0,.08A1,1,0,0,0,66,33a1,1,0,0,0,.73.25,1.79,1.79,0,0,0,1.12-.44l-.18-.4s0,0-.05-.06l0,0a.12.12,0,0,0-.09,0l-.12.07-.16.08a.51.51,0,0,1-.22,0,.38.38,0,0,1-.3-.12.49.49,0,0,1-.12-.36.08.08,0,0,1,0,0A.46.46,0,0,1,66.56,32Z"/><path class="cls-2" d="M70.06,28.39l-.58,4.82h-.83l.58-4.82Zm.32-1.51a.46.46,0,0,1,0,.23.64.64,0,0,1-.13.19.59.59,0,0,1-.19.13.42.42,0,0,1-.22.05.41.41,0,0,1-.21-.05.46.46,0,0,1-.18-.13.5.5,0,0,1-.13-.19.55.55,0,0,1,0-.46.64.64,0,0,1,.13-.19.62.62,0,0,1,.18-.14.51.51,0,0,1,.44,0,.59.59,0,0,1,.18.13.53.53,0,0,1,.13.2A.46.46,0,0,1,70.38,26.88Z"/><path class="cls-2" d="M72.37,28.39l-.64,5.17a2,2,0,0,1-.14.54,1.46,1.46,0,0,1-.29.44,1.3,1.3,0,0,1-.43.29,1.4,1.4,0,0,1-.56.1,1.23,1.23,0,0,1-.29,0l-.23-.07.08-.46a.28.28,0,0,1,.06-.08h.27a.69.69,0,0,0,.5-.17,1,1,0,0,0,.21-.56l.63-5.17Zm.3-1.51a.59.59,0,0,1,0,.23.64.64,0,0,1-.13.19.59.59,0,0,1-.19.13.44.44,0,0,1-.22.05.38.38,0,0,1-.21-.05.46.46,0,0,1-.18-.13.5.5,0,0,1-.13-.19.55.55,0,0,1,0-.46.5.5,0,0,1,.13-.19.62.62,0,0,1,.18-.14.54.54,0,0,1,.22-.05.63.63,0,0,1,.22.05.75.75,0,0,1,.18.13.53.53,0,0,1,.13.2A.59.59,0,0,1,72.67,26.88Z"/><path class="cls-2" d="M76.36,33.21a.24.24,0,0,1-.22-.09.37.37,0,0,1-.06-.21l.09-1a3.78,3.78,0,0,1-.4.56,2.59,2.59,0,0,1-.45.43,1.69,1.69,0,0,1-.49.27,1.29,1.29,0,0,1-.51.1,1.14,1.14,0,0,1-1-.45,2.17,2.17,0,0,1-.34-1.3,4.13,4.13,0,0,1,.08-.78,4.66,4.66,0,0,1,.23-.75,4.22,4.22,0,0,1,.36-.66,3.06,3.06,0,0,1,.48-.53,2,2,0,0,1,.56-.35,1.69,1.69,0,0,1,.63-.13,1.55,1.55,0,0,1,.65.14,1.33,1.33,0,0,1,.49.39l.33-2.64h.83l-.86,7Zm-1.72-.62a.85.85,0,0,0,.46-.14,1.74,1.74,0,0,0,.44-.39,3.06,3.06,0,0,0,.41-.59,5.13,5.13,0,0,0,.32-.75l.16-1.28a1.09,1.09,0,0,0-.43-.35,1.34,1.34,0,0,0-.51-.11,1.12,1.12,0,0,0-.68.23,1.88,1.88,0,0,0-.51.57,3.29,3.29,0,0,0-.33.79,3.76,3.76,0,0,0-.11.86,1.6,1.6,0,0,0,.2.87A.68.68,0,0,0,74.64,32.59Z"/></svg>