<svg id="Layer_1" data-name="Layer 1" xmlns="http://www.w3.org/2000/svg" viewBox="0 0 89.11 35.39"><defs><style>.cls-1{fill:none;}.cls-2{fill:#3f3f3d;}</style></defs><title>Artboard 1</title><rect class="cls-1" x="-12.14" y="-10.26" width="113.39" height="51.02"/><path class="cls-2" d="M37.3,7.81V5.25h-.73V16.39h.73V10a4.61,4.61,0,0,1,3.91-4.22V5.15A5.16,5.16,0,0,0,37.3,7.81"/><path class="cls-2" d="M66.88,10.85v-.17A5.39,5.39,0,0,1,72.22,5a5.28,5.28,0,0,1,5.28,5.62v.17a5.32,5.32,0,1,1-10.62,0m9.88,0v-.17c0-3.15-2.09-5-4.54-5s-4.6,1.92-4.6,5v.17c0,3,2.07,5,4.58,5s4.56-1.91,4.56-5"/><path class="cls-2" d="M88.35,12.49A4.42,4.42,0,0,1,84,15.85c-2.51,0-4.58-2-4.58-5v-.17c0-3.11,2.11-5,4.6-5a4.38,4.38,0,0,1,4.19,3H89A5.12,5.12,0,0,0,84,5a5.39,5.39,0,0,0-5.34,5.64v.17A5.38,5.38,0,0,0,84,16.49a5.25,5.25,0,0,0,5.11-4Z"/><path class="cls-2" d="M12.09,10.85v-.17A5.39,5.39,0,0,1,17.43,5a5.28,5.28,0,0,1,5.28,5.62v.17a5.32,5.32,0,1,1-10.62,0m9.88,0v-.17c0-3.15-2.09-5-4.54-5s-4.59,1.92-4.59,5v.17c0,3,2.06,5,4.57,5s4.56-1.91,4.56-5"/><path class="cls-2" d="M24,10.85v-.17A5.39,5.39,0,0,1,29.32,5a5.28,5.28,0,0,1,5.28,5.62v.17a5.32,5.32,0,1,1-10.62,0m9.88,0v-.17c0-3.15-2.09-5-4.54-5s-4.59,1.92-4.59,5v.17c0,3,2.06,5,4.57,5s4.56-1.91,4.56-5"/><path class="cls-2" d="M10.62,10.61V.33H9.88V7.65A5.13,5.13,0,0,0,5.34,5,5.39,5.39,0,0,0,0,10.68v.17a5.38,5.38,0,0,0,5.3,5.64,5.37,5.37,0,0,0,5.32-5.66v-.22m-.74.22c0,3.11-2.06,5-4.56,5s-4.58-2-4.58-5v-.17c0-3.11,2.11-5,4.6-5s4.54,1.86,4.54,5Z"/><path class="cls-2" d="M65.46,10.61V.33h-.74V7.65A5.13,5.13,0,0,0,60.18,5a5.39,5.39,0,0,0-5.34,5.64v.17a5.32,5.32,0,1,0,10.62,0v-.22m-.74.22c0,3.11-2.07,5-4.56,5s-4.57-2-4.57-5v-.17c0-3.11,2.1-5,4.59-5s4.54,1.86,4.54,5Z"/><path class="cls-2" d="M48.23,17.26A1.69,1.69,0,0,1,50.13,19a1.74,1.74,0,0,1-.44,1.26h2.24a2.68,2.68,0,0,0,.38-1.44c0-1.81-1.49-3.29-4.05-3.29S44,17.16,43.92,19.29h2a2.15,2.15,0,0,1,2.29-2"/><path class="cls-2" d="M49.93,8.87c1.43-1.38,2.36-2.74,2.36-4.31A3.31,3.31,0,0,0,50.9,1.73H45.75a4.22,4.22,0,0,0-1.7,3.42H46.1c.2-1.7,1-2.39,2.15-2.39a1.67,1.67,0,0,1,1.8,1.84c0,1.14-.69,2.2-1.83,3.41L43.68,12.8v.41h8.69V11.47H47.26Z"/><rect class="cls-2" x="41.21" width="13.63" height="0.32"/><rect class="cls-2" x="41.21" y="21.67" width="13.63" height="0.32"/><path class="cls-2" d="M22.77,30.17v-1h-.28V33.5h.28V31a1.8,1.8,0,0,1,1.52-1.64v-.24a2,2,0,0,0-1.52,1"/><path class="cls-2" d="M59.31,32a1.73,1.73,0,0,1-1.69,1.31,1.81,1.81,0,0,1-1.78-1.95V31.3a1.81,1.81,0,0,1,1.79-1.95,1.7,1.7,0,0,1,1.63,1.15h.3a2,2,0,0,0-1.93-1.39,2.09,2.09,0,0,0-2.08,2.19v.07a2.1,2.1,0,0,0,2.06,2.19,2,2,0,0,0,2-1.55Z"/><path class="cls-2" d="M33.65,31.37V31.3a2.09,2.09,0,0,1,2.07-2.19,2.06,2.06,0,0,1,2.06,2.18v.07a2.07,2.07,0,1,1-4.13,0m3.84,0v-.07a1.78,1.78,0,0,0-1.77-1.94,1.81,1.81,0,0,0-1.78,1.95v.07a1.78,1.78,0,1,0,3.55,0"/><path class="cls-2" d="M77.46,31.28v-4h-.28v2.85a2,2,0,0,0-1.77-1,2.1,2.1,0,0,0-2.08,2.19v.07a2.07,2.07,0,1,0,4.13,0v-.09m-.29.09a1.78,1.78,0,1,1-3.55,0v-.07a1.81,1.81,0,0,1,1.79-1.95,1.78,1.78,0,0,1,1.76,1.94Z"/><path class="cls-2" d="M38.42,31.4v4h.29V32.54a2,2,0,0,0,1.76,1,2.09,2.09,0,0,0,2.08-2.19V31.3a2.07,2.07,0,1,0-4.13,0v.09m.29-.09a1.78,1.78,0,1,1,3.55,0v.07a1.81,1.81,0,0,1-1.79,1.95,1.78,1.78,0,0,1-1.76-1.94Z"/><path class="cls-2" d="M26.8,31.4v4h.29V32.54a2,2,0,0,0,1.76,1,2.09,2.09,0,0,0,2.08-2.19V31.3a2.07,2.07,0,1,0-4.13,0v.09m.29-.09a1.78,1.78,0,1,1,3.55,0v.07a1.81,1.81,0,0,1-1.79,1.95,1.78,1.78,0,0,1-1.76-1.94Z"/><path class="cls-2" d="M21.26,33.49V31.31a2.07,2.07,0,1,0-4.13,0v.07a2.09,2.09,0,0,0,2.08,2.19,2,2,0,0,0,1.76-1v1c0,1.16-.7,1.58-1.67,1.58s-1.51-.45-1.63-1h-.29c.11.68.69,1.3,1.93,1.3a1.72,1.72,0,0,0,2-1.83ZM21,31.38a1.78,1.78,0,0,1-1.76,1.94,1.81,1.81,0,0,1-1.79-1.95V31.3a1.78,1.78,0,1,1,3.55,0Z"/><path class="cls-2" d="M25.17,28a.22.22,0,0,1,.22-.22.22.22,0,0,1,.22.22.22.22,0,0,1-.22.22.23.23,0,0,1-.22-.22m.08,1.17h.28V33.5h-.28Z"/><polygon class="cls-2" points="45.01 29.17 45.31 29.17 46.56 33.16 47.83 29.17 48.07 29.17 49.3 33.16 50.58 29.17 50.85 29.17 49.48 33.51 49.14 33.51 47.94 29.64 46.71 33.51 46.37 33.51 45.01 29.17"/><path class="cls-2" d="M51.36,32.35c0-1,.91-1.3,2-1.3h1.08v-.42c0-.89-.38-1.28-1.21-1.28a1.21,1.21,0,0,0-1.35,1h-.28a1.5,1.5,0,0,1,1.64-1.25,1.34,1.34,0,0,1,1.48,1.53V33.5h-.28v-.73a1.7,1.7,0,0,1-1.54.8c-.9,0-1.49-.43-1.49-1.22m3-.17v-.9H53.31c-.92,0-1.67.2-1.67,1.07,0,.63.43,1,1.22,1s1.53-.52,1.53-1.15"/><path class="cls-2" d="M60.51,27.09h.28v3a1.72,1.72,0,0,1,1.62-1c.93,0,1.55.51,1.55,1.73V33.5h-.28V30.82c0-1-.49-1.47-1.32-1.47a1.51,1.51,0,0,0-1.57,1.53V33.5h-.28Z"/><path class="cls-2" d="M65.39,32.48V29.41h-.65v-.24h.65v-1h.28v1h3.8v.24h-3.8v3.06c0,.59.29.84.72.84a1.4,1.4,0,0,0,.55-.09v.25a1.55,1.55,0,0,1-.56.09c-.62,0-1-.36-1-1.08"/><path class="cls-2" d="M68,32.48v-4.3h.28v4.29c0,.59.29.84.72.84a1.44,1.44,0,0,0,.55-.09v.25a1.55,1.55,0,0,1-.56.09c-.62,0-1-.36-1-1.08"/><path class="cls-2" d="M70.51,28A.22.22,0,0,1,71,28a.22.22,0,0,1-.44,0m.08,1.17h.28V33.5h-.28Z"/><path class="cls-2" d="M71.61,34.8c.49,0,.64-.28.64-.8V29.17h.28V34c0,.69-.24,1-.92,1.06Zm.56-6.8a.22.22,0,0,1,.44,0,.22.22,0,0,1-.44,0"/></svg>